<?xml version="1.0" encoding="UTF-8" standalone="no"?>
<!-- Created with Inkscape (http://www.inkscape.org/) -->

<svg
   xmlns:dc="http://purl.org/dc/elements/1.1/"
   xmlns:cc="http://creativecommons.org/ns#"
   xmlns:rdf="http://www.w3.org/1999/02/22-rdf-syntax-ns#"
   xmlns:svg="http://www.w3.org/2000/svg"
   xmlns="http://www.w3.org/2000/svg"
   xmlns:sodipodi="http://sodipodi.sourceforge.net/DTD/sodipodi-0.dtd"
   xmlns:inkscape="http://www.inkscape.org/namespaces/inkscape"
   id="svg3353"
   sodipodi:docname="libpdf_favicon_simple.svg"
   viewBox="0 0 270 269.99999"
   sodipodi:version="0.32"
   version="1.1"
   inkscape:output_extension="org.inkscape.output.svg.inkscape"
   inkscape:version="0.92.4 5da689c313, 2019-01-14"
   width="270"
   height="270"
   inkscape:export-filename="/home/marco/ub/libpdf/docs/_static/libpdf.png"
   inkscape:export-xdpi="96"
   inkscape:export-ydpi="96">
  <defs
     id="defs14" />
  <sodipodi:namedview
     id="base"
     bordercolor="#666666"
     inkscape:pageshadow="2"
     inkscape:window-y="27"
     pagecolor="#ffffff"
     inkscape:window-height="1025"
     inkscape:window-maximized="1"
     inkscape:zoom="2"
     inkscape:window-x="0"
     showgrid="false"
     borderopacity="1.0"
     inkscape:current-layer="layer1"
     inkscape:cx="162.84996"
     inkscape:cy="105.7859"
     inkscape:window-width="1920"
     inkscape:pageopacity="0.0"
     inkscape:document-units="mm"
     fit-margin-top="0"
     fit-margin-left="0"
     fit-margin-right="0"
     fit-margin-bottom="0"
     inkscape:pagecheckerboard="true" />
  <g
     id="layer1"
     inkscape:label="Layer 1"
     inkscape:groupmode="layer"
     transform="translate(-114.18201,-351.0392)">
    <path
       style="fill:#000000;stroke-width:1.1589514"
       d="m 261.34314,351.64271 a 122.5396,134.38872 0 0 0 -122.53906,134.38867 122.5396,134.38872 0 0 0 122.53906,134.38867 122.5396,134.38872 0 0 0 98.2168,-54.26757 v -24.76563 h -84.30859 v -0.0137 a 62.406019,55.3374 0 0 1 -0.21485,0.006 62.406019,55.3374 0 0 1 -62.40625,-55.33594 62.406019,55.3374 0 0 1 62.40625,-55.33789 62.406019,55.3374 0 0 1 0.21485,0.01 v -0.008 h 84.30859 v -24.79508 a 122.5396,134.38872 0 0 0 -98.2168,-54.26953 z"
       id="path2492"
       inkscape:connector-curvature="0" />
    <path
       style="fill:#000000;stroke-width:0.76948184"
       d="m 262.05213,351.65638 v 80.32617 a 62.406023,55.3374 0 0 1 12.98437,-1.27734 62.406023,55.3374 0 0 1 0.21485,0.01 v -0.008 h 84.30859 v -79.05083 z m 0,188.48828 v 80.29102 h 97.50781 v -79.04883 h -84.30859 v -0.0137 a 62.406023,55.3374 0 0 1 -0.21485,0.006 62.406023,55.3374 0 0 1 -12.98437,-1.23438 z"
       id="rect2494"
       inkscape:connector-curvature="0" />
    <rect
       style="fill:#ff0000;fill-opacity:1;stroke:#ff0000;stroke-width:8.04618073;stroke-linejoin:round;stroke-miterlimit:4;stroke-dasharray:none;stroke-opacity:1"
       id="rect833-3-3"
       width="78.654312"
       height="38.185352"
       x="263.47885"
       y="561.8186" />
    <rect
       style="fill:#ff0000;fill-opacity:1;stroke:#ff0000;stroke-width:8.04618073;stroke-linejoin:round;stroke-miterlimit:4;stroke-dasharray:none;stroke-opacity:1"
       id="rect833-3-3-3"
       width="78.654312"
       height="38.185352"
       x="263.47885"
       y="372.0881" />
  </g>
  <metadata
     id="metadata13">
    <rdf:RDF>
      <cc:Work>
        <dc:format>image/svg+xml</dc:format>
        <dc:type
           rdf:resource="http://purl.org/dc/dcmitype/StillImage" />
        <cc:license
           rdf:resource="http://creativecommons.org/publicdomain/zero/1.0/" />
        <dc:publisher>
          <cc:Agent
             rdf:about="http://openclipart.org/">
            <dc:title>Openclipart</dc:title>
          </cc:Agent>
        </dc:publisher>
        <dc:title />
      </cc:Work>
      <cc:License
         rdf:about="http://creativecommons.org/publicdomain/zero/1.0/">
        <cc:permits
           rdf:resource="http://creativecommons.org/ns#Reproduction" />
        <cc:permits
           rdf:resource="http://creativecommons.org/ns#Distribution" />
        <cc:permits
           rdf:resource="http://creativecommons.org/ns#DerivativeWorks" />
      </cc:License>
    </rdf:RDF>
  </metadata>
</svg>
